<?xml version="1.0" encoding="UTF-8" standalone="no"?>
<!-- Created with Inkscape (http://www.inkscape.org/) -->

<svg
   width="210mm"
   height="297mm"
   viewBox="0 0 210 297"
   version="1.1"
   id="svg296"
   inkscape:version="1.2.2 (b0a8486541, 2022-12-01)"
   sodipodi:docname="box.svg"
   xmlns:inkscape="http://www.inkscape.org/namespaces/inkscape"
   xmlns:sodipodi="http://sodipodi.sourceforge.net/DTD/sodipodi-0.dtd"
   xmlns="http://www.w3.org/2000/svg"
   xmlns:svg="http://www.w3.org/2000/svg">
  <sodipodi:namedview
     id="namedview298"
     pagecolor="#ffffff"
     bordercolor="#666666"
     borderopacity="1.0"
     inkscape:showpageshadow="2"
     inkscape:pageopacity="0.0"
     inkscape:pagecheckerboard="0"
     inkscape:deskcolor="#d1d1d1"
     inkscape:document-units="mm"
     showgrid="false"
     inkscape:zoom="18.185359"
     inkscape:cx="235.57412"
     inkscape:cy="349.70439"
     inkscape:window-width="1920"
     inkscape:window-height="1026"
     inkscape:window-x="0"
     inkscape:window-y="0"
     inkscape:window-maximized="1"
     inkscape:current-layer="layer1" />
  <defs
     id="defs293" />
  <g
     inkscape:label="Layer 1"
     inkscape:groupmode="layer"
     id="layer1">
    <path
       style="fill:#000000;stroke-width:1"
       d="m 61.558739,85.311153 h 4.48724 4.36059 c 0.002,2.953566 -0.002,5.907113 -0.007,8.860668 -2.97761,-0.05658 -7.10632,0.02769 -8.81054,0.0278 0.006,-3.073112 -0.004,-5.800342 -0.0294,-8.888513 z m 7.6465,5.09087 c -1.16501,-0.344066 -2.01109,-0.598503 -3.08308,-0.89009 -0.87562,0.252753 -2.45857,0.466037 -3.32962,0.756114 -0.0291,1.417908 -0.02995,1.423274 0.0034,2.805139 2.823884,-0.04928 3.177343,0.0319 6.441948,-0.01655 -0.0072,-0.880177 -0.03398,-1.937365 -0.0326,-2.654618 z m 0.0708,-2.010863 v -1.642676 h -3.23007 -3.23007 v 1.642676 l -0.0337,0.86842 3.27358,-0.910517 3.23766,0.847417 z"
       id="path2585-3"
       sodipodi:nodetypes="cccccccccccccccccccccc"
       inkscape:export-filename="box.png"
       inkscape:export-xdpi="44.028408"
       inkscape:export-ydpi="44.028408" />
  </g>
</svg>
