<?xml version="1.0" encoding="UTF-8" standalone="no"?>
<!-- Created with Inkscape (http://www.inkscape.org/) -->

<svg
   width="210mm"
   height="297mm"
   viewBox="0 0 210 297"
   version="1.1"
   id="svg5"
   xml:space="preserve"
   inkscape:version="1.2.2 (b0a8486541, 2022-12-01)"
   sodipodi:docname="robot.svg"
   xmlns:inkscape="http://www.inkscape.org/namespaces/inkscape"
   xmlns:sodipodi="http://sodipodi.sourceforge.net/DTD/sodipodi-0.dtd"
   xmlns="http://www.w3.org/2000/svg"
   xmlns:svg="http://www.w3.org/2000/svg"><sodipodi:namedview
     id="namedview7"
     pagecolor="#ffffff"
     bordercolor="#666666"
     borderopacity="1.0"
     inkscape:showpageshadow="2"
     inkscape:pageopacity="0.0"
     inkscape:pagecheckerboard="0"
     inkscape:deskcolor="#d1d1d1"
     inkscape:document-units="mm"
     showgrid="false"
     inkscape:zoom="1.0643466"
     inkscape:cx="662.84799"
     inkscape:cy="567.95409"
     inkscape:window-width="1920"
     inkscape:window-height="1026"
     inkscape:window-x="0"
     inkscape:window-y="0"
     inkscape:window-maximized="1"
     inkscape:current-layer="layer1" /><defs
     id="defs2" /><g
     inkscape:label="Layer 1"
     inkscape:groupmode="layer"
     id="layer1"><path
       style="fill:#000000;stroke-width:1"
       d="m 66.349955,163.36876 c -2.0327,-0.20409 -2.15413,-0.45903 -2.15413,-4.52247 v -3.37304 l -0.99219,-0.0821 c -0.8614,-0.0713 -1.00322,-0.17803 -1.07591,-0.80972 -0.0808,-0.7026 -0.13768,-0.72761 -1.65364,-0.72761 -1.21715,0 -1.68884,0.11891 -2.0991,0.52917 -0.29104,0.29104 -0.76729,0.52917 -1.05833,0.52917 -0.29104,0 -0.76729,-0.23813 -1.05833,-0.52917 -0.29104,-0.29104 -0.52917,-0.76729 -0.52917,-1.05833 0,-0.29104 0.23813,-0.76729 0.52917,-1.05834 0.41157,-0.41157 0.52916,-0.88194 0.52916,-2.11666 0,-1.23473 -0.11759,-1.70509 -0.52916,-2.11667 -0.29104,-0.29104 -0.52917,-0.76729 -0.52917,-1.05833 0,-0.29104 0.23813,-0.76729 0.52917,-1.05834 0.31619,-0.31619 0.52916,-0.88194 0.52916,-1.4057 0,-1.30916 1.19095,-2.36146 2.54675,-2.25025 1.35294,0.11097 1.42851,0.83955 0.10015,0.96559 -1.1953,0.11341 -1.58856,0.45996 -1.58856,1.39984 0,0.97517 0.84452,1.81969 1.81969,1.81969 0.93988,0 1.28642,-0.39327 1.39984,-1.58856 0.12603,-1.32837 0.85462,-1.25279 0.96559,0.10015 0.1112,1.3558 -0.94109,2.54674 -2.25025,2.54674 -1.38472,0 -1.93487,0.7523 -1.93487,2.64584 0,2.12631 0.49551,2.64583 2.52355,2.64583 1.4405,0 1.46394,-0.0123 1.38907,-0.7276 l -0.0762,-0.72761 3.37343,-0.074 c 10.28842,0.0124 5.14329,-0.15548 12.03854,0 l 3.37344,0.074 -0.0762,0.72761 c -0.0749,0.71532 -0.0514,0.7276 1.38906,0.7276 2.02804,0 2.52356,-0.51952 2.52356,-2.64583 0,-1.89354 -0.55015,-2.64584 -1.93487,-2.64584 -1.30916,0 -2.36145,-1.19094 -2.25025,-2.54674 0.11097,-1.35294 0.83955,-1.42852 0.96559,-0.10015 0.11341,1.19529 0.45996,1.58856 1.39984,1.58856 0.97517,0 1.81969,-0.84452 1.81969,-1.81969 0,-0.93988 -0.39327,-1.28643 -1.58856,-1.39984 -1.32836,-0.12604 -1.25279,-0.85462 0.10015,-0.96559 1.3558,-0.11121 2.54674,0.94109 2.54674,2.25025 0,0.52376 0.21297,1.08951 0.52917,1.4057 0.29104,0.29105 0.52917,0.7673 0.52917,1.05834 0,0.29104 -0.23813,0.76729 -0.52917,1.05833 -0.41157,0.41158 -0.52917,0.88194 -0.52917,2.11667 0,1.23472 0.1176,1.70509 0.52917,2.11666 0.29104,0.29105 0.52917,0.7673 0.52917,1.05834 0,0.68145 -0.90605,1.5875 -1.5875,1.5875 -0.29104,0 -0.76729,-0.23813 -1.05834,-0.52917 -0.41025,-0.41026 -0.88194,-0.52917 -2.09909,-0.52917 -1.51596,0 -1.5728,0.025 -1.65365,0.72761 -0.0727,0.63169 -0.2145,0.73843 -1.0759,0.80972 l -0.99219,0.0821 v 3.37304 c 0,4.06344 -0.11344,4.42721 -2.15414,4.52247 l -3.04913,0.14234 c -2.58957,-0.16111 -2.15791,0.16507 -6.40085,-0.14234 z m 9.03102,-1.04156 1.38257,-0.13902 0.072,-4.96094 0.072,-4.96094 h -5.83251 -5.83251 l 0.072,4.96094 0.072,4.96094 1.41774,0.14234 c 6.66352,0.20401 5.42261,0.073 8.57671,-0.003 z m -7.89373,-2.46626 c -0.0756,-0.19706 -0.10298,-1.48045 -0.0608,-2.85199 l 0.0767,-2.49369 h 3.57187 3.57188 v 2.77813 2.77812 l -3.51107,0.0739 c -2.76072,0.0581 -3.54046,-0.003 -3.64856,-0.28444 z m 6.23359,-0.98005 c 0,-0.15875 -1.05834,-0.26459 -2.64584,-0.26459 -1.5875,0 -2.64583,0.10584 -2.64583,0.26459 0,0.15875 1.05833,0.26458 2.64583,0.26458 1.5875,0 2.64584,-0.10583 2.64584,-0.26458 z m 0,-2.38125 v -1.05834 h -2.64584 -2.64583 v 1.05834 1.05833 h 2.64583 2.64584 z m -9.525,-3.175 c 0,-1.00834 -0.039,-1.05834 -0.82461,-1.05834 -0.72603,0 -0.80554,0.0712 -0.66507,0.59532 0.0877,0.32742 0.16116,0.80367 0.16315,1.05833 0.002,0.31654 0.21288,0.46302 0.66507,0.46302 0.59531,0 0.66146,-0.10583 0.66146,-1.05833 z m 15.08486,0.59531 c 0.002,-0.25466 0.0754,-0.73091 0.16315,-1.05833 0.14047,-0.52415 0.061,-0.59532 -0.66507,-0.59532 -0.78565,0 -0.82461,0.05 -0.82461,1.05834 0,0.9525 0.0662,1.05833 0.66146,1.05833 0.45219,0 0.6626,-0.14648 0.66507,-0.46302 z m -21.55291,-0.35378 c 0.27266,-0.44117 -0.34057,-0.94708 -0.70557,-0.58209 -0.3053,0.30531 -0.11422,0.86972 0.29445,0.86972 0.12835,0 0.31335,-0.12943 0.41112,-0.28763 z m 27.51667,0 c 0.27266,-0.44117 -0.34057,-0.94708 -0.70557,-0.58209 -0.30531,0.30531 -0.11423,0.86972 0.29445,0.86972 0.12834,0 0.31335,-0.12943 0.41112,-0.28763 z m -27.51667,-6.35004 c 0.27266,-0.44117 -0.34057,-0.94708 -0.70557,-0.58209 -0.3053,0.30531 -0.11422,0.86972 0.29445,0.86972 0.12835,0 0.31335,-0.12943 0.41112,-0.28763 z m 27.51667,0 c 0.27266,-0.44117 -0.34057,-0.94708 -0.70557,-0.58209 -0.30531,0.30531 -0.11423,0.86972 0.29445,0.86972 0.12834,0 0.31335,-0.12943 0.41112,-0.28763 z"
       id="path2308"
       sodipodi:nodetypes="cscsssssssssssssssssssssssccccsssssssssssssssssssssscssccscccccccccsscccccsssscssscscccccccssscssssssssssssssssssssscssc" /></g></svg>
