<?xml version="1.0" encoding="UTF-8" standalone="no"?>
<!-- Created with Inkscape (http://www.inkscape.org/) -->

<svg
   width="210mm"
   height="297mm"
   viewBox="0 0 210 297"
   version="1.1"
   id="svg5"
   xml:space="preserve"
   inkscape:version="1.2.2 (b0a8486541, 2022-12-01)"
   sodipodi:docname="robot_v2_grab.svg"
   xmlns:inkscape="http://www.inkscape.org/namespaces/inkscape"
   xmlns:sodipodi="http://sodipodi.sourceforge.net/DTD/sodipodi-0.dtd"
   xmlns="http://www.w3.org/2000/svg"
   xmlns:svg="http://www.w3.org/2000/svg"><sodipodi:namedview
     id="namedview7"
     pagecolor="#ffffff"
     bordercolor="#666666"
     borderopacity="1.0"
     inkscape:showpageshadow="2"
     inkscape:pageopacity="0.0"
     inkscape:pagecheckerboard="0"
     inkscape:deskcolor="#d1d1d1"
     inkscape:document-units="mm"
     showgrid="false"
     inkscape:zoom="3.5921697"
     inkscape:cx="421.75067"
     inkscape:cy="416.87896"
     inkscape:window-width="1920"
     inkscape:window-height="1026"
     inkscape:window-x="0"
     inkscape:window-y="0"
     inkscape:window-maximized="1"
     inkscape:current-layer="layer1" /><defs
     id="defs2" /><g
     inkscape:label="Layer 1"
     inkscape:groupmode="layer"
     id="layer1"><g
       id="g2485"
       transform="rotate(15,99.732509,153.12465)"><path
         style="fill:#000000;stroke-width:1"
         d="m 88.38064,94.179609 c 0.105601,-1.810076 -0.0037,-1.616444 -0.52916,-2.11667 -0.298106,-0.283798 -0.52917,-0.76729 -0.52917,-1.05833 0,-0.29104 0.23813,-0.76729 0.52917,-1.05834 0.31619,-0.31619 0.52916,-0.88194 0.52916,-1.4057 0,-1.30916 1.19095,-2.36146 2.54675,-2.25025 1.35294,0.11097 1.42851,0.83955 0.10015,0.96559 -1.1953,0.11341 -1.58856,0.45996 -1.58856,1.39984 0,0.97517 0.84452,1.81969 1.81969,1.81969 0.93988,0 1.28642,-0.39327 1.39984,-1.58856 0.12603,-1.32837 0.85462,-1.25279 0.96559,0.10015 0.1112,1.3558 -0.942697,2.48189 -2.25025,2.54674 -1.662967,0.08248 -1.978421,0.826051 -2.041454,3.301793 -0.06601,1.116299 0.489815,1.907378 -0.599858,1.785801 -0.9504,-0.106038 -0.451198,-0.739683 -0.351898,-2.441754 z m 0.940299,-2.93353 c 0.27266,-0.44117 -0.34057,-0.94708 -0.70557,-0.58209 -0.3053,0.30531 -0.11422,0.86972 0.29445,0.86972 0.12835,0 0.31335,-0.12943 0.41112,-0.28763 z"
         id="path2308"
         sodipodi:nodetypes="sssssssssssscsscssc"
         inkscape:export-filename="robot_v2.png.png"
         inkscape:export-xdpi="44.028408"
         inkscape:export-ydpi="44.028408" /></g><g
       id="g2587"
       transform="translate(14.587116,-0.36757643)"><path
         style="fill:#000000;stroke-width:1"
         d="m 96.442922,107.39871 c -2.4372,0 -2.15413,0.054 -2.15413,-4.52247 v -3.373041 l -0.99219,-0.0821 c -0.8614,-0.0713 -0.942809,-0.187948 -1.07591,-0.80972 -0.147891,-0.690866 -0.800346,-0.778054 -1.222718,-0.775474 -0.301345,0.0018 -0.619575,0.166774 -1.029834,0.577034 -0.29104,0.29104 -0.76729,0.52917 -1.05833,0.52917 -0.29104,0 -0.76729,-0.23813 -1.05833,-0.52917 -0.29104,-0.29104 -0.52917,-0.76729 -0.52917,-1.05833 0,-0.29104 0.23813,-0.76729 0.52917,-1.05834 2.243667,-2.537448 1.476833,-0.713969 2.900896,0.375666 0.874074,-0.134977 1.106662,0.143904 1.065027,-0.574096 l 0.07673,-0.782829 3.254512,-0.01878 c 10.288415,0.0124 5.460875,0.0091 12.038535,0 l 3.37907,0.01912 -0.0192,0.776354 c -0.008,0.304242 0.52263,0.923551 1.02077,0.808129 1.20139,-1.047106 1.54381,-3.32026 2.9166,-0.60356 0.29104,0.29105 0.52917,0.7673 0.52917,1.05834 0,0.68145 -0.90605,1.5875 -1.5875,1.5875 -0.29104,0 -0.76729,-0.23813 -1.05834,-0.52917 -0.41025,-0.41026 -0.48983,-0.456719 -0.8165,-0.442686 -0.42961,0.01846 -0.88582,0.04059 -1.43605,0.641126 -0.42955,0.468827 -0.2145,0.73843 -1.0759,0.80972 l -0.99219,0.0821 v 3.373037 c 0,4.79203 -0.31664,4.44805 -2.15414,4.52247 -3.99638,0.101 -5.0367,0.0691 -9.449975,0 z m 9.031018,-1.04156 1.38257,-0.13902 0.072,-4.96094 0.072,-4.960941 H 101.168 95.335492 l 0.072,4.960941 0.072,4.96094 1.41774,0.14234 c 4.553368,0.0534 8.576708,0.073 8.576708,-0.003 z m -7.893728,-2.46626 c -0.0756,-0.19706 -0.10298,-1.48045 -0.0608,-2.85199 l 0.0767,-2.493691 h 3.571868 3.57188 v 2.778131 2.77812 l -3.51107,0.0739 c -2.760718,0.0581 -3.540458,-0.003 -3.648558,-0.28444 z m 6.233588,-0.98005 c 0,-0.15875 -1.05834,-0.26459 -2.64584,-0.26459 -1.587498,0 -2.645828,0.10584 -2.645828,0.26459 0,0.15875 1.05833,0.26458 2.645828,0.26458 1.5875,0 2.64584,-0.10583 2.64584,-0.26458 z m 0,-2.38125 v -1.058341 h -2.64584 -2.645828 v 1.058341 1.05833 h 2.645828 2.64584 z m -9.524998,-3.175001 c 0,-1.00834 -0.039,-1.05834 -0.82461,-1.05834 -0.72603,0 -0.789834,0.149232 -0.735724,0.583103 0.03654,0.357099 0.108874,0.80367 0.16315,1.05833 0.06598,0.309593 0.283534,0.475237 0.735724,0.475237 0.59531,0 0.66146,-0.10583 0.66146,-1.05833 z m 15.084858,0.59531 c 0.0831,-0.268334 0.14662,-0.714653 0.16819,-1.045917 0.0353,-0.5415 0.056,-0.607733 -0.67011,-0.607733 -0.78565,0 -0.82461,0.05 -0.82461,1.05834 0,0.9525 0.0662,1.05833 0.66146,1.05833 0.45219,0 0.5714,-0.160645 0.66507,-0.46302 z m -20.052721,-0.35378 c 0.27266,-0.44117 -0.34057,-0.94708 -0.70557,-0.58209 -0.3053,0.30531 -0.11422,0.86972 0.29445,0.86972 0.12835,0 0.31335,-0.12943 0.41112,-0.28763 z m 24.516291,0 c 0.27266,-0.44117 -0.34057,-0.94708 -0.70557,-0.58209 -0.30531,0.30531 -0.11423,0.86972 0.29445,0.86972 0.12834,0 0.31335,-0.12943 0.41112,-0.28763 z"
         id="path2585"
         sodipodi:nodetypes="sscsssssssccsccccsccsssssscsccsscccccccccscccccsssscssscssccccccssscssssssssssssssssss"
         inkscape:export-filename="robot_v2.png.png"
         inkscape:export-xdpi="44.028408"
         inkscape:export-ydpi="44.028408" /></g><g
       id="g2676"
       transform="matrix(-0.96592583,0.25881905,0.25881905,0.96592583,188.7456,-20.595077)"><path
         style="fill:#000000;stroke-width:1"
         d="m 88.38064,94.179609 c 0.105601,-1.810076 -0.0037,-1.616444 -0.52916,-2.11667 -0.298106,-0.283798 -0.52917,-0.76729 -0.52917,-1.05833 0,-0.29104 0.23813,-0.76729 0.52917,-1.05834 0.31619,-0.31619 0.52916,-0.88194 0.52916,-1.4057 0,-1.30916 1.19095,-2.36146 2.54675,-2.25025 1.35294,0.11097 1.42851,0.83955 0.10015,0.96559 -1.1953,0.11341 -1.58856,0.45996 -1.58856,1.39984 0,0.97517 0.84452,1.81969 1.81969,1.81969 0.93988,0 1.28642,-0.39327 1.39984,-1.58856 0.12603,-1.32837 0.85462,-1.25279 0.96559,0.10015 0.1112,1.3558 -0.942697,2.48189 -2.25025,2.54674 -1.662967,0.08248 -1.978421,0.826051 -2.041454,3.301793 -0.06601,1.116299 0.489815,1.907378 -0.599858,1.785801 -0.9504,-0.106038 -0.451198,-0.739683 -0.351898,-2.441754 z m 0.940299,-2.93353 c 0.27266,-0.44117 -0.34057,-0.94708 -0.70557,-0.58209 -0.3053,0.30531 -0.11422,0.86972 0.29445,0.86972 0.12835,0 0.31335,-0.12943 0.41112,-0.28763 z"
         id="path2674"
         sodipodi:nodetypes="sssssssssssscsscssc"
         inkscape:export-filename="robot_v2.png.png"
         inkscape:export-xdpi="44.028408"
         inkscape:export-ydpi="44.028408" /></g></g></svg>
